<svg width="520" height="210" xmlns="http://www.w3.org/2000/svg">
  <rect width="520" height="210" rx="14" fill="#0d1117"/>
  <text x="260" y="34" text-anchor="middle" fill="#c9d1d9" font-size="18" font-family="Segoe UI, Arial" font-weight="600">Current Language Focus</text>

  <text x="40" y="75" fill="#c9d1d9" font-size="14" font-family="Segoe UI, Arial">C++</text>
  <rect x="140" y="62" width="320" height="14" rx="7" fill="#161b22"/>
  <rect x="140" y="62" width="4" height="14" rx="7" fill="#58a6ff"/>
  <text x="475" y="75" fill="#c9d1d9" font-size="14" font-family="Segoe UI, Arial">0%</text>

  <text x="40" y="110" fill="#c9d1d9" font-size="14" font-family="Segoe UI, Arial">JavaScript</text>
  <rect x="140" y="97" width="320" height="14" rx="7" fill="#161b22"/>
  <rect x="140" y="97" width="218" height="14" rx="7" fill="#f1e05a"/>
  <text x="475" y="110" fill="#c9d1d9" font-size="14" font-family="Segoe UI, Arial">68%</text>

  <text x="40" y="145" fill="#c9d1d9" font-size="14" font-family="Segoe UI, Arial">HTML</text>
  <rect x="140" y="132" width="320" height="14" rx="7" fill="#161b22"/>
  <rect x="140" y="132" width="26" height="14" rx="7" fill="#e34c26"/>
  <text x="475" y="145" fill="#c9d1d9" font-size="14" font-family="Segoe UI, Arial">8%</text>

  <text x="40" y="180" fill="#c9d1d9" font-size="14" font-family="Segoe UI, Arial">CSS</text>
  <rect x="140" y="167" width="320" height="14" rx="7" fill="#161b22"/>
  <rect x="140" y="167" width="74" height="14" rx="7" fill="#563d7c"/>
  <text x="475" y="180" fill="#c9d1d9" font-size="14" font-family="Segoe UI, Arial">23%</text>
</svg>